<svg width="30" height="30" viewBox="0 0 30 30" fill="none" xmlns="http://www.w3.org/2000/svg">
<path d="M24.1106 6.06847H22.0622V3.60472C22.0622 2.21628 20.9316 1.08472 19.5422 1.08472H10.4587C9.06937 1.08472 7.93875 2.21534 7.93875 3.60472V6.06847H5.88937C3.21094 6.06847 1.03125 8.24815 1.03125 10.9275V23.4863C1.03125 26.1647 3.21094 28.3453 5.88937 28.3453H24.1106C26.7891 28.3453 28.9697 26.1657 28.9697 23.4863V10.9266C28.9687 8.24815 26.7891 6.06847 24.1106 6.06847ZM9.62625 3.60472C9.62625 3.14628 9.99937 2.77315 10.4587 2.77315H19.5422C20.0006 2.77315 20.3747 3.14534 20.3747 3.60472V6.06847H9.62625V3.60472ZM24.1106 26.656H5.88937C4.14094 26.656 2.71875 25.2338 2.71875 23.4853V15.8485H13.0969C13.5628 15.8485 13.1634 15.466 13.1634 15C13.1634 14.5341 13.5628 14.16 13.0969 14.16H2.71875V10.9266C2.71875 9.17815 4.14187 7.75597 5.88937 7.75597H24.1106C25.8591 7.75597 27.2812 9.17815 27.2812 10.9266V14.16H16.9031C16.4372 14.16 16.7184 14.5332 16.7184 15C16.7184 15.4669 16.4372 15.8485 16.9031 15.8485H27.2812V23.4853C27.2812 25.2338 25.8591 26.656 24.1106 26.656Z" fill="#091678"/>
<path d="M15.6007 18.7735H14.3998C13.2157 18.7735 12.252 17.8098 12.252 16.6257V13.3735C12.252 12.1895 13.2148 11.2257 14.3998 11.2257H15.6007C16.7848 11.2257 17.7485 12.1895 17.7485 13.3735V16.6257C17.7485 17.8098 16.7838 18.7735 15.6007 18.7735ZM14.3988 12.9141C14.1448 12.9141 13.9385 13.1204 13.9385 13.3735V16.6257C13.9385 16.8798 14.1448 17.0851 14.3988 17.0851H15.5998C15.8538 17.0851 16.0591 16.8788 16.0591 16.6257V13.3735C16.0591 13.1195 15.8529 12.9141 15.5998 12.9141H14.3988Z" fill="#138A93"/>
</svg>
