<svg width="44" height="44" viewBox="0 0 44 44" fill="none" xmlns="http://www.w3.org/2000/svg">
<path d="M39.4986 33.1098C39.4986 33.7416 39.3582 34.391 39.0598 35.0229C38.7615 35.6547 38.3753 36.2514 37.8664 36.8131C37.0064 37.7608 36.0586 38.4453 34.988 38.8841C33.9349 39.3229 32.7941 39.551 31.5655 39.551C29.7753 39.551 27.8623 39.1298 25.8439 38.2698C23.8255 37.4098 21.8072 36.2514 19.8064 34.7947C17.788 33.3204 15.8749 31.6882 14.0496 29.8804C12.2419 28.0551 10.6096 26.142 9.15289 24.1412C7.71371 22.1404 6.55534 20.1396 5.71289 18.1563C4.87044 16.1555 4.44922 14.2424 4.44922 12.4171C4.44922 11.2237 4.65983 10.0829 5.08106 9.02979C5.50228 7.95918 6.16922 6.97632 7.09942 6.09877C8.22269 4.99306 9.45126 4.44897 10.75 4.44897C11.2415 4.44897 11.7329 4.55428 12.1717 4.76489C12.628 4.97551 13.0317 5.29142 13.3476 5.74775L17.4194 11.4869C17.7353 11.9257 17.9635 12.3294 18.1215 12.7155C18.2794 13.0841 18.3672 13.4526 18.3672 13.7861C18.3672 14.2073 18.2443 14.6286 17.9986 15.0322C17.7704 15.4359 17.437 15.8571 17.0157 16.2784L15.6819 17.6649C15.4888 17.858 15.4011 18.0861 15.4011 18.3669C15.4011 18.5073 15.4186 18.6302 15.4537 18.7706C15.5064 18.911 15.559 19.0163 15.5941 19.1216C15.91 19.7008 16.4541 20.4555 17.2264 21.3682C18.0162 22.2808 18.8586 23.211 19.7713 24.1412C20.719 25.0714 21.6317 25.9314 22.5619 26.7212C23.4745 27.4935 24.2292 28.02 24.826 28.3359C24.9137 28.371 25.019 28.4237 25.1419 28.4763C25.2823 28.529 25.4227 28.5465 25.5806 28.5465C25.879 28.5465 26.1072 28.4412 26.3002 28.2482L27.6341 26.9318C28.0729 26.4931 28.4941 26.1596 28.8978 25.949C29.3015 25.7033 29.7051 25.5804 30.1439 25.5804C30.4774 25.5804 30.8284 25.6506 31.2145 25.8086C31.6006 25.9665 32.0043 26.1947 32.4431 26.4931L38.2525 30.6175C38.7088 30.9335 39.0247 31.302 39.2178 31.7408C39.3933 32.1796 39.4986 32.6184 39.4986 33.1098Z" fill="#091678"/>
</svg>
