<svg width="50" height="50" viewBox="0 0 50 50" fill="none" xmlns="http://www.w3.org/2000/svg">
<path d="M39.14 6.0791V43.9209C39.14 46.2768 37.2234 48.1934 34.8676 48.1934H15.1328C12.777 48.1934 10.8604 46.2768 10.8604 43.9209V6.0791C10.8604 3.72324 12.777 1.80664 15.1328 1.80664H34.8676C37.2234 1.80664 39.14 3.72324 39.14 6.0791ZM18.8256 4.24805L19.6757 6.0791H30.3246L31.1747 4.24805H18.8256ZM36.6986 6.0791C36.6986 5.06943 35.8772 4.24805 34.8676 4.24805H33.8665L32.2109 7.81387C32.0108 8.24482 31.5788 8.52051 31.1037 8.52051H18.8967C18.4216 8.52051 17.9896 8.24482 17.7895 7.81387L16.1339 4.24805H15.1328C14.1231 4.24805 13.3018 5.06943 13.3018 6.0791V43.9209C13.3018 44.9306 14.1231 45.752 15.1328 45.752H34.8676C35.8772 45.752 36.6986 44.9306 36.6986 43.9209V6.0791ZM28.3571 41.8864H21.6433C20.9691 41.8864 20.4226 42.4329 20.4226 43.1071C20.4226 43.7813 20.9691 44.3278 21.6433 44.3278H28.3571C29.0312 44.3278 29.5778 43.7813 29.5778 43.1071C29.5778 42.4329 29.0312 41.8864 28.3571 41.8864Z" fill="#091678"/>
<path opacity="0.5" d="M21.7775 28.0917L26.0117 19.7346C26.3164 19.1332 27.0511 18.8927 27.6523 19.1974C28.2537 19.5021 28.4942 20.2367 28.1895 20.838L23.9553 29.1951C23.7403 29.6197 23.3109 29.8644 22.8655 29.8644C22.6799 29.8644 22.4916 29.8219 22.3147 29.7323C21.7133 29.4276 21.4728 28.693 21.7775 28.0917ZM30.7476 22.1069C30.2709 21.6301 29.4979 21.6301 29.0212 22.1069C28.5445 22.5835 28.5445 23.3565 29.0212 23.8333L30.837 25.649L29.0212 27.4647C28.5445 27.9414 28.5445 28.7143 29.0212 29.1911C29.2595 29.4294 29.572 29.5486 29.8844 29.5486C30.1968 29.5486 30.5092 29.4294 30.7476 29.1911L33.4265 26.5122C33.9033 26.0354 33.9033 25.2625 33.4265 24.7858L30.7476 22.1069ZM21.0128 24.4654L19.1971 22.6497L21.0128 20.8339C21.4896 20.3573 21.4896 19.5843 21.0128 19.1076C20.5362 18.6308 19.7631 18.6308 19.2865 19.1076L16.6076 21.7865C16.1308 22.2632 16.1308 23.0361 16.6076 23.5128L19.2865 26.1917C19.5248 26.4301 19.8373 26.5493 20.1497 26.5493C20.4621 26.5493 20.7745 26.4301 21.0128 26.1917C21.4896 25.715 21.4896 24.942 21.0128 24.4654Z" fill="#091678"/>
</svg>
