<svg width="50" height="50" viewBox="0 0 50 50" fill="none" xmlns="http://www.w3.org/2000/svg">
<path d="M22.3955 5.10407C23.833 3.8749 26.1871 3.8749 27.6455 5.10407L30.9372 7.93762C31.5622 8.47929 32.7288 8.91673 33.5621 8.91673H37.1038C39.3122 8.91673 41.1247 10.7291 41.1247 12.9374V16.4792C41.1247 17.2917 41.5622 18.4793 42.1038 19.1043L44.9372 22.3958C46.1664 23.8333 46.1664 26.1875 44.9372 27.6459L42.1038 30.9375C41.5622 31.5625 41.1247 32.7291 41.1247 33.5625V37.1043C41.1247 39.3126 39.3122 41.125 37.1038 41.125H33.5621C32.7496 41.125 31.5622 41.5624 30.9372 42.1041L27.6455 44.9374C26.208 46.1666 23.8538 46.1666 22.3955 44.9374L19.1039 42.1041C18.4789 41.5624 17.3122 41.125 16.4788 41.125H12.8747C10.6663 41.125 8.85384 39.3126 8.85384 37.1043V33.5416C8.85384 32.7291 8.41635 31.5625 7.89552 30.9375L5.08301 27.625C3.87467 26.1875 3.87467 23.8542 5.08301 22.4167L7.89552 19.1043C8.41635 18.4793 8.85384 17.3126 8.85384 16.5001V12.9374C8.85384 10.7291 10.6663 8.91673 12.8747 8.91673H16.4788C17.2913 8.91673 18.4789 8.47929 19.1039 7.93762L22.3955 5.10407Z" stroke="#091678" stroke-width="2.3" stroke-linecap="round" stroke-linejoin="round"/>
<g opacity="0.5">
<path d="M20.6042 30.875L23.625 33.2083C24.0208 33.6041 24.8959 33.7917 25.4792 33.7917H29.1667C30.3333 33.7917 31.6042 32.9167 31.8958 31.75L34.2292 24.6249C34.7083 23.2708 33.8334 22.0833 32.375 22.0833H28.4792C27.8959 22.0833 27.4167 21.6043 27.5 20.9168L27.9792 17.7918C28.1667 16.9168 27.5834 15.9376 26.7084 15.6459C25.9375 15.3542 24.9584 15.75 24.5625 16.3333L20.5625 22.2708" stroke="#091678" stroke-width="2.3" stroke-miterlimit="10"/>
<path d="M15.625 30.8749V21.3333C15.625 19.9583 16.2083 19.4791 17.5833 19.4791H18.5625C19.9167 19.4791 20.5208 19.9583 20.5208 21.3333V30.8749C20.5208 32.2291 19.9375 32.7291 18.5625 32.7291H17.5833C16.2083 32.7291 15.625 32.2499 15.625 30.8749Z" stroke="#091678" stroke-width="2.3" stroke-linecap="round" stroke-linejoin="round"/>
</g>
</svg>
