<svg width="44" height="44" viewBox="0 0 44 44" fill="none" xmlns="http://www.w3.org/2000/svg">
<path d="M37.1303 15.7693C35.2874 7.66074 28.2143 4.01013 22.0013 4.01013C22.0013 4.01013 22.0013 4.01013 21.9837 4.01013C15.7882 4.01013 8.69761 7.64319 6.85475 15.7518C4.80128 24.8081 10.3474 32.4779 15.367 37.3044C17.2274 39.0946 19.6143 39.9897 22.0013 39.9897C24.3882 39.9897 26.7752 39.0946 28.618 37.3044C33.6376 32.4779 39.1837 24.8256 37.1303 15.7693ZM22.0013 24.5624C18.9474 24.5624 16.4727 22.0877 16.4727 19.0338C16.4727 15.9799 18.9474 13.5052 22.0013 13.5052C25.0552 13.5052 27.5299 15.9799 27.5299 19.0338C27.5299 22.0877 25.0552 24.5624 22.0013 24.5624Z" fill="#091678"/>
</svg>
