<svg width="44" height="44" viewBox="0 0 44 44" fill="none" xmlns="http://www.w3.org/2000/svg">
<path d="M30.7757 7.08154H13.2247C7.95942 7.08154 4.44922 9.7142 4.44922 15.8571V28.1428C4.44922 34.2856 7.95942 36.9183 13.2247 36.9183H30.7757C36.0411 36.9183 39.5513 34.2856 39.5513 28.1428V15.8571C39.5513 9.7142 36.0411 7.08154 30.7757 7.08154ZM31.6006 17.7701L26.1072 22.1579C24.9488 23.0881 23.4745 23.5444 22.0002 23.5444C20.526 23.5444 19.0341 23.0881 17.8933 22.1579L12.3998 17.7701C11.8382 17.3138 11.7504 16.4713 12.1892 15.9097C12.6455 15.3481 13.4704 15.2428 14.0321 15.6991L19.5255 20.0868C20.8594 21.1575 23.1235 21.1575 24.4574 20.0868L29.9509 15.6991C30.5125 15.2428 31.3549 15.3305 31.7937 15.9097C32.25 16.4713 32.1623 17.3138 31.6006 17.7701Z" fill="#091678"/>
</svg>
