<svg width="32" height="32" viewBox="0 0 32 32" fill="none" xmlns="http://www.w3.org/2000/svg">
<path d="M28.8106 22.4658C28.7061 22.1436 28.4454 21.8965 28.1182 21.8091L25.1026 21.001L23.4034 18.3838C23.2188 18.0996 22.9034 17.9282 22.5645 17.9282C22.2256 17.9282 21.9102 18.0996 21.7256 18.3833L20.0254 21.001L17.0108 21.8091C16.6836 21.8965 16.4229 22.144 16.3184 22.4658C16.2139 22.7881 16.2793 23.1411 16.4922 23.4043L18.4571 25.8301L18.292 28.9473C18.2745 29.2856 18.4287 29.6099 18.7032 29.8091C18.877 29.9351 19.083 30 19.2911 30C19.4121 30 19.5332 29.978 19.6495 29.9336L22.5645 28.8145L25.4786 29.9336C25.795 30.0537 26.1495 30.0083 26.4248 29.8091C26.6983 29.6099 26.8536 29.2856 26.836 28.9478L26.6719 25.8301L28.6368 23.4043C28.8496 23.1411 28.9151 22.7881 28.8106 22.4658ZM24.876 24.8696C24.7207 25.0615 24.6416 25.3047 24.6543 25.5513L24.7579 27.5142L22.9229 26.8096C22.8077 26.7651 22.6856 26.7432 22.5645 26.7432C22.4434 26.7432 22.3213 26.7651 22.2061 26.8096L20.3711 27.5142L20.4746 25.5518C20.4873 25.3047 20.4082 25.062 20.253 24.8696L19.0157 23.3423L20.9141 22.8335C21.1524 22.7695 21.3594 22.6196 21.4942 22.4126L22.5645 20.7646L23.6338 22.4121C23.7686 22.6196 23.9756 22.7695 24.2139 22.8335L26.1133 23.3423L24.876 24.8696Z" fill="#138A93"/>
<path d="M6.17984 20.0742C6.76676 18.0132 8.67496 16.5737 10.8214 16.5737H20.6798C21.2326 16.5737 21.6798 16.126 21.6798 15.5737C21.6798 15.1473 21.4109 14.7892 21.0349 14.6454C22.486 13.3127 23.4025 11.4067 23.4025 9.28613C23.4025 5.26855 20.1339 2 16.1164 2C12.0988 2 8.83023 5.26855 8.83023 9.28613C8.83023 11.3685 9.71329 13.2447 11.1189 14.5737H10.8214C7.78629 14.5737 5.08609 16.6104 4.25601 19.5283L3.25601 23.0654C2.99918 23.9541 3.17203 24.8896 3.72965 25.6318C4.29117 26.3789 5.14957 26.8076 6.08512 26.8076H14.5089C15.0617 26.8076 15.5089 26.3599 15.5089 25.8076C15.5089 25.2554 15.0617 24.8076 14.5089 24.8076H6.08512C5.78434 24.8076 5.50797 24.6699 5.32828 24.4302C5.15152 24.1953 5.09684 23.9004 5.17887 23.6152L6.17984 20.0742ZM10.8302 9.28613C10.8302 6.37158 13.2013 4 16.1164 4C19.0314 4 21.4025 6.37158 21.4025 9.28613C21.4025 12.2007 19.0314 14.5718 16.1164 14.5718C13.2013 14.5718 10.8302 12.2007 10.8302 9.28613Z" fill="#091678"/>
</svg>
