<svg width="50" height="50" viewBox="0 0 50 50" fill="none" xmlns="http://www.w3.org/2000/svg">
<path d="M42.5772 3.75H7.49138C5.42838 3.75 3.75 5.42838 3.75 7.49138V42.411C3.75 44.474 5.42838 46.1523 7.49138 46.1523H42.5772C44.6402 46.1523 46.3186 44.474 46.3186 42.411V7.49138C46.3186 5.42838 44.6402 3.75 42.5772 3.75ZM7.49138 6.24426H42.5772C43.2649 6.24426 43.8244 6.80372 43.8244 7.49138V13.727H6.24426V7.49138C6.24426 6.80372 6.80372 6.24426 7.49138 6.24426ZM42.5772 43.6581H7.49138C6.80372 43.6581 6.24426 43.0986 6.24426 42.411V16.2213H43.8244V42.411C43.8244 43.0986 43.2649 43.6581 42.5772 43.6581Z" fill="#091678"/>
<g opacity="0.5">
<path d="M29.2664 20.0635C28.6334 19.7922 27.9002 20.0854 27.6289 20.7185L20.1461 38.1783C19.8747 38.8113 20.1681 39.5445 20.8011 39.8158C21.4344 40.0872 22.1674 39.7937 22.4387 39.1608L29.9214 21.701C30.1928 21.0679 29.8995 20.3348 29.2664 20.0635Z" fill="#091678"/>
<path d="M18.5256 24.172C18.0953 23.6342 17.3103 23.547 16.7727 23.9773L10.5371 28.9658C9.91362 29.4644 9.91321 30.4145 10.5371 30.9135L16.7727 35.902C17.3106 36.3323 18.0955 36.245 18.5256 35.7073C18.9559 35.1694 18.8687 34.3846 18.3308 33.9544L13.3125 29.9396L18.3308 25.925C18.8687 25.4947 18.9559 24.7099 18.5256 24.172Z" fill="#091678"/>
<path d="M39.5324 28.9658L33.2967 23.9773C32.7589 23.547 31.974 23.6342 31.5438 24.172C31.1136 24.7099 31.2007 25.4947 31.7387 25.9249L36.7569 29.9397L31.7387 33.9543C31.2007 34.3846 31.1136 35.1694 31.5438 35.7072C31.9747 36.2456 32.7596 36.3318 33.2967 35.9019L39.5324 30.9134C40.1558 30.4148 40.1563 29.4648 39.5324 28.9658Z" fill="#091678"/>
</g>
<path d="M10.0684 11.2328C10.7572 11.2328 11.3155 10.6744 11.3155 9.98564C11.3155 9.29687 10.7572 8.73851 10.0684 8.73851C9.37965 8.73851 8.82129 9.29687 8.82129 9.98564C8.82129 10.6744 9.37965 11.2328 10.0684 11.2328Z" fill="#091678"/>
<path d="M15.0577 11.2328C15.7464 11.2328 16.3048 10.6744 16.3048 9.98564C16.3048 9.29687 15.7464 8.73851 15.0577 8.73851C14.3689 8.73851 13.8105 9.29687 13.8105 9.98564C13.8105 10.6744 14.3689 11.2328 15.0577 11.2328Z" fill="#091678"/>
<path d="M20.046 11.2328C20.7347 11.2328 21.2931 10.6744 21.2931 9.98564C21.2931 9.29687 20.7347 8.73851 20.046 8.73851C19.3572 8.73851 18.7988 9.29687 18.7988 9.98564C18.7988 10.6744 19.3572 11.2328 20.046 11.2328Z" fill="#091678"/>
<path d="M32.5167 11.2328H39.9994C40.6882 11.2328 41.2466 10.6744 41.2466 9.98564C41.2466 9.29689 40.6882 8.73851 39.9994 8.73851H32.5167C31.8279 8.73851 31.2695 9.29689 31.2695 9.98564C31.2695 10.6744 31.8279 11.2328 32.5167 11.2328Z" fill="#091678"/>
</svg>
