<svg width="50" height="50" viewBox="0 0 50 50" fill="none" xmlns="http://www.w3.org/2000/svg">
<g clip-path="url(#clip0_2148_2609)">
<path d="M48.7118 42.4988L41.2837 35.0706C39.9152 33.7021 37.8942 33.439 36.2811 34.2111L33.497 31.4271C36.3555 28.0953 38.0852 23.7682 38.0852 19.0442C38.0852 8.54414 29.5427 0.00166321 19.0426 0.00166321C8.54248 0.00166321 0 8.54405 0 19.0441C0 29.5442 8.54248 38.0867 19.0426 38.0867C23.7665 38.0867 28.0937 36.357 31.4254 33.4985L34.2095 36.2826C33.4382 37.8938 33.6986 39.915 35.0689 41.2853C35.7637 41.98 41.761 47.9774 42.4972 48.7135C44.2105 50.4268 46.9983 50.4269 48.7118 48.7135C50.4293 46.9963 50.4296 44.2165 48.7118 42.4988ZM19.0426 35.157C10.1579 35.157 2.92959 27.9287 2.92959 19.044C2.92959 10.1594 10.1579 2.93116 19.0426 2.93116C27.9272 2.93116 35.1556 10.1595 35.1556 19.0441C35.1556 27.9288 27.9272 35.157 19.0426 35.157ZM37.1406 39.2137C36.5681 38.6411 36.5681 37.7147 37.1406 37.1421C37.7118 36.571 38.641 36.571 39.2123 37.1421L40.2481 38.1779L38.1765 40.2495L37.1406 39.2137ZM46.6403 46.6418C46.0692 47.213 45.14 47.2129 44.5688 46.6418L40.2479 42.3209L42.3194 40.2493L46.6402 44.5701C47.2115 45.1414 47.2115 46.0707 46.6403 46.6418Z" fill="#091678"/>
<path opacity="0.6" d="M23.2923 17.2124C24.2888 16.1615 24.9021 14.7439 24.9021 13.1849C24.9021 9.95411 22.2736 7.32559 19.0428 7.32559C15.812 7.32559 13.1835 9.95401 13.1835 13.1849C13.1835 14.744 13.7968 16.1615 14.7933 17.2124C12.0889 18.7127 10.2539 21.5976 10.2539 24.9033V27.8329C10.2539 28.6419 10.9098 29.2978 11.7188 29.2978H26.3669C27.1759 29.2978 27.8317 28.6419 27.8317 27.8329V24.9033C27.8316 21.5976 25.9968 18.7127 23.2923 17.2124ZM19.0428 10.2552C20.6582 10.2552 21.9724 11.5694 21.9724 13.1848C21.9724 14.8001 20.6581 16.1144 19.0428 16.1144C17.4273 16.1144 16.1132 14.8001 16.1132 13.1848C16.1132 11.5694 17.4274 10.2552 19.0428 10.2552ZM24.9021 26.3682H13.1835V24.9033C13.1835 21.6726 15.8119 19.044 19.0428 19.044C22.2735 19.044 24.9021 21.6725 24.9021 24.9033V26.3682Z" fill="#091678"/>
</g>
<defs>
<clipPath id="clip0_2148_2609">
<rect width="50" height="50" fill="white"/>
</clipPath>
</defs>
</svg>
