<svg width="50" height="50" viewBox="0 0 50 50" fill="none" xmlns="http://www.w3.org/2000/svg">
<path d="M4.16699 4.16669H7.792C10.042 4.16669 11.8128 6.10419 11.6253 8.33335L9.89616 29.0833C9.60449 32.4792 12.292 35.3958 15.7086 35.3958H37.8962C40.8962 35.3958 43.5212 32.9375 43.7503 29.9584L44.8753 14.3334C45.1253 10.875 42.5003 8.06251 39.0211 8.06251H12.1253" stroke="#091678" stroke-width="2.3" stroke-miterlimit="10" stroke-linecap="round" stroke-linejoin="round"/>
<path d="M33.8542 45.8333C35.2924 45.8333 36.4583 44.6674 36.4583 43.2292C36.4583 41.7909 35.2924 40.625 33.8542 40.625C32.4159 40.625 31.25 41.7909 31.25 43.2292C31.25 44.6674 32.4159 45.8333 33.8542 45.8333Z" stroke="#091678" stroke-width="2.3" stroke-miterlimit="10" stroke-linecap="round" stroke-linejoin="round"/>
<path d="M17.1872 45.8333C18.6254 45.8333 19.7913 44.6674 19.7913 43.2292C19.7913 41.7909 18.6254 40.625 17.1872 40.625C15.7489 40.625 14.583 41.7909 14.583 43.2292C14.583 44.6674 15.7489 45.8333 17.1872 45.8333Z" stroke="#091678" stroke-width="2.3" stroke-miterlimit="10" stroke-linecap="round" stroke-linejoin="round"/>
<path opacity="0.5" d="M18.75 16.6667H43.75" stroke="#091678" stroke-width="2.3" stroke-miterlimit="10" stroke-linecap="round" stroke-linejoin="round"/>
</svg>
