<svg width="44" height="44" viewBox="0 0 44 44" fill="none" xmlns="http://www.w3.org/2000/svg">
<path d="M33.0422 12.269C35.6756 12.269 37.8139 10.1223 37.8139 7.49391C37.5772 1.16802 28.5107 1.16919 28.2705 7.49397C28.2705 10.1223 30.4157 12.269 33.0422 12.269Z" fill="#091678"/>
<path d="M40.8459 15.5578C40.0071 14.0028 38.7557 12.7712 37.2568 11.9662C35.1085 14.1751 30.9755 14.1743 28.8273 11.9661C26.6078 13.206 23.7109 16.0977 25.3138 18.833C25.9189 19.8375 26.9777 20.4361 28.1466 20.4361H37.9375C40.3718 20.5165 42.0616 17.6583 40.8459 15.5578Z" fill="#091678"/>
<path d="M10.9416 12.269C13.575 12.269 15.7133 10.1223 15.7133 7.49391C15.4766 1.16802 6.41015 1.16919 6.16992 7.49397C6.16993 10.1223 8.31513 12.269 10.9416 12.269Z" fill="#091678"/>
<path d="M18.6697 18.833C20.2701 16.0968 17.3812 13.2072 15.1563 11.9662C13.0079 14.1751 8.8749 14.1743 6.7267 11.9661C4.50717 13.206 1.61035 16.0977 3.21317 18.833C3.8183 19.8375 4.87713 20.4361 6.04601 20.4361H15.8369C17.0127 20.4361 18.0715 19.8375 18.6697 18.833Z" fill="#091678"/>
<path d="M17.2207 28.3061C17.2207 30.9344 19.3659 33.0811 21.9924 33.0811C28.3144 32.8398 28.3121 23.767 21.9924 23.531C19.3659 23.531 17.2207 25.6708 17.2207 28.3061Z" fill="#091678"/>
<path d="M26.2079 32.7784C24.0595 34.9872 19.9265 34.9864 17.7783 32.7783C16.2863 33.5834 15.028 34.815 14.1892 36.37C12.9711 38.4701 14.6715 41.3284 17.0977 41.2482L26.8885 41.2483C29.3228 41.3286 31.0126 38.4704 29.7969 36.3699C28.9581 34.815 27.7067 33.5834 26.2079 32.7784Z" fill="#091678"/>
<path d="M18.7134 13.1015C20.838 12.4891 23.1413 12.4891 25.2659 13.1015C25.6097 12.7093 25.9741 12.3446 26.366 12.0075C23.5607 11.0167 20.4186 11.0236 17.6133 12.0075C18.0121 12.3377 18.3765 12.7024 18.7134 13.1015Z" fill="#091678"/>
<path d="M10.3038 24.3098C10.3038 23.4635 10.3932 22.6241 10.572 21.8122H9.16934C9.01122 22.631 8.92871 23.4635 8.92871 24.3098C8.92871 28.2867 10.7508 32.0228 13.7898 34.4586C14.058 34.087 14.3605 33.743 14.6768 33.4127C11.9403 31.2247 10.3038 27.8808 10.3038 24.3098Z" fill="#091678"/>
<path d="M33.4133 21.8122C33.5921 22.6241 33.6815 23.4635 33.6815 24.3098C33.6815 27.8808 32.045 31.2178 29.3154 33.4127C29.6317 33.743 29.9273 34.087 30.2024 34.4586C33.2414 32.0159 35.0566 28.2867 35.0566 24.3098C35.0566 23.4635 34.9741 22.631 34.816 21.8122H33.4133Z" fill="#091678"/>
</svg>
